{"title":"Animen Triton Force 2010 R5 DVDRip XviD HQ DAYN-D3MT","uid":6315342,"size":897768542,"categoryP":"video","categoryS":"movies","magnet":"?xt=urn:btih:27a14a55e6a18265eeaa0e1673683290e57c4f13&amp;dn=Animen+Triton+Force+2010+R5+DVDRip+XviD+HQ+DAYN-D3MT&amp;tr=udp%3A%2F%2Ftracker.openbittorrent.com%3A80&amp;tr=udp%3A%2F%2Fopen.demonii.com%3A1337&amp;tr=udp%3A%2F%2Ftracker.coppersurfer.tk%3A6969&amp;tr=udp%3A%2F%2Fexodus.desync.com%3A6969","seeders":0,"leechers":1,"uploader":"arihantkatariya","files":2,"time":1302686873,"description":"Animen Triton Force [2010] R5 DVDRip XviD HQ DAYN-DAYN DOT ORG\n\nInfo:\n\n[quote]\nFormat                           : AVI\nFormat/Info                      : Audio Video Interleave\nFile size                        : 826 MiB\nDuration                         : 1h 32mn\nOverall bit rate                 : 1 244 Kbps\nWriting application              : Lavf52.39.1\n\nVideo\nID                               : 0\nFormat                           : MPEG-4 Visual\nFormat settings, BVOP            : 1\nFormat settings, QPel            : No\nFormat settings, GMC             : No warppoints\nFormat settings, Matrix          : Default (H.263)\nMuxing mode                      : Packed bitstream\nCodec ID                         : DX50\nCodec ID/Hint                    : DivX 5\nDuration                         : 1h 32mn\nBit rate                         : 1 104 Kbps\nWidth                            : 688 pixels\nHeight                           : 266 pixels\nDisplay aspect ratio             : 2.586\nFrame rate                       : 25.000 fps\nColor space                      : YUV\nChroma subsampling               : 4:2:0\nBit depth                        : 8 bits\nScan type                        : Progressive\nCompression mode                 : Lossy\nBits/(Pixel*Frame)               : 0.241\nStream size                      : 733 MiB (89%)\nWriting library                  : DivX 6.8.5 (UTC 2009-08-20)\n\nAudio\nID                               : 1\nFormat                           : MPEG Audio\nFormat version                   : Version 1\nFormat profile                   : Layer 2\nCodec ID                         : 50\nDuration                         : 1h 32mn\nBit rate mode                    : Constant\nBit rate                         : 128 Kbps\nChannel(s)                       : 2 channels\nSampling rate                    : 48.0 KHz\nCompression mode                 : Lossy\nStream size                      : 85.0 MiB (10%)\nAlignment                        : Aligned on interleaves\nInterleave, duration             : 24 ms (0.60 video frame)\n","torrent":{"xt":"urn:btih:27a14a55e6a18265eeaa0e1673683290e57c4f13","amp;dn":"Animen+Triton+Force+2010+R5+DVDRip+XviD+HQ+DAYN-D3MT","amp;tr":["udp%3A%2F%2Ftracker.openbittorrent.com%3A80","udp%3A%2F%2Fopen.demonii.com%3A1337","udp%3A%2F%2Ftracker.coppersurfer.tk%3A6969","udp%3A%2F%2Fexodus.desync.com%3A6969"],"infoHash":"27a14a55e6a18265eeaa0e1673683290e57c4f13","infoHashBuffer":{"type":"Buffer","data":[39,161,74,85,230,161,130,101,238,170,14,22,115,104,50,144,229,124,79,19]},"announce":[],"urlList":[]}}